<?xml version="1.0" encoding="UTF-8" standalone="no"?>
<svg
   xmlns:dc="http://purl.org/dc/elements/1.1/"
   xmlns:cc="http://creativecommons.org/ns#"
   xmlns:rdf="http://www.w3.org/1999/02/22-rdf-syntax-ns#"
   xmlns:svg="http://www.w3.org/2000/svg"
   xmlns="http://www.w3.org/2000/svg"
   xmlns:sodipodi="http://sodipodi.sourceforge.net/DTD/sodipodi-0.dtd"
   xmlns:inkscape="http://www.inkscape.org/namespaces/inkscape"
   viewBox="0 0 453.5433 340.15747"
   version="1.0"
   sodipodi:docname="param_port.svg"
   inkscape:version="1.0 (6e3e5246a0, 2020-05-07)"
   sodipodi:version="0.32"
   id="svg2"
   height="340.15747"
   width="453.5433">
  <defs
     id="defs4">
    <marker
       inkscape:isstock="true"
       style="overflow:visible"
       id="Arrow1Mend"
       refX="0"
       refY="0"
       orient="auto"
       inkscape:stockid="Arrow1Mend">
      <path
         transform="matrix(-0.4,0,0,-0.4,-4,0)"
         style="fill:#000000;fill-opacity:1;fill-rule:evenodd;stroke:#000000;stroke-width:1pt;stroke-opacity:1"
         d="M 0,0 5,-5 -12.5,0 5,5 Z"
         id="path898" />
    </marker>
    <marker
       inkscape:isstock="true"
       style="overflow:visible"
       id="Arrow1Mstart"
       refX="0"
       refY="0"
       orient="auto"
       inkscape:stockid="Arrow1Mstart">
      <path
         transform="matrix(0.4,0,0,0.4,4,0)"
         style="fill:#000000;fill-opacity:1;fill-rule:evenodd;stroke:#000000;stroke-width:1pt;stroke-opacity:1"
         d="M 0,0 5,-5 -12.5,0 5,5 Z"
         id="path895" />
    </marker>
  </defs>
  <sodipodi:namedview
     inkscape:window-maximized="0"
     inkscape:document-rotation="0"
     inkscape:guide-bbox="true"
     showguides="true"
     inkscape:guide-points="true"
     inkscape:grid-bbox="true"
     inkscape:grid-points="true"
     inkscape:object-paths="false"
     grid_units="mm"
     showgrid="true"
     units="cm"
     height="9.6cm"
     width="12.8cm"
     inkscape:window-y="25"
     inkscape:window-x="33"
     inkscape:window-height="724"
     inkscape:window-width="988"
     inkscape:current-layer="layer1"
     inkscape:document-units="mm"
     inkscape:cy="142.11582"
     inkscape:cx="209.67787"
     inkscape:zoom="1.1850105"
     inkscape:pageshadow="2"
     inkscape:pageopacity="0.0"
     borderopacity="1.0"
     bordercolor="#666666"
     pagecolor="#ffffff"
     id="base">
    <sodipodi:guide
       id="guide3573"
       position="56.476527"
       orientation="vertical" />
    <sodipodi:guide
       id="guide3579"
       position="11.035643"
       orientation="horizontal" />
    <sodipodi:guide
       id="guide3886"
       position="24.018753"
       orientation="horizontal" />
    <sodipodi:guide
       id="guide3988"
       position="285.62841"
       orientation="horizontal" />
    <sodipodi:guide
       id="guide4081"
       position="303.15561"
       orientation="horizontal" />
    <inkscape:grid
       empspacing="5"
       empopacity="0.38"
       opacity="0.15"
       empcolor="#3f3fff"
       color="#3f3fff"
       spacingy="7.5590551"
       spacingx="7.5590551"
       originy="0"
       originx="0"
       type="xygrid"
       id="GridFromPre046Settings" />
  </sodipodi:namedview>
  <metadata
     id="metadata7">
    <rdf:RDF>
      <cc:Work
         rdf:about="">
        <dc:format>image/svg+xml</dc:format>
        <dc:type
           rdf:resource="http://purl.org/dc/dcmitype/StillImage" />
        <dc:title></dc:title>
      </cc:Work>
    </rdf:RDF>
  </metadata>
  <g
     id="layer1"
     inkscape:groupmode="layer"
     inkscape:label="Layer 1">
    <path
       id="path3037"
       d="m 37.795279,300.74652 10e-7,-265.360335"
       style="fill:none;stroke:#000000;stroke-width:2;stroke-linecap:butt;stroke-linejoin:miter;stroke-miterlimit:4;stroke-dasharray:none;stroke-opacity:1;marker-end:url(#Arrow1Mend)" />
    <path
       id="path3622"
       d="M 415.74803,300.74652 H 37.795279"
       style="fill:none;stroke:#000000;stroke-width:2;stroke-linecap:butt;stroke-linejoin:miter;stroke-miterlimit:4;stroke-dasharray:none;stroke-opacity:1;marker-start:url(#Arrow1Mstart)" />
    <path
       id="path3750"
       d="M 113.38583,300.74652 V 36.1796"
       style="fill:none;stroke:#000000;stroke-width:1;stroke-linecap:butt;stroke-linejoin:miter;stroke-miterlimit:4;stroke-dasharray:6, 6;stroke-dashoffset:0;stroke-opacity:1" />
    <path
       id="path3752"
       d="M 37.795279,225.15597 H 415.74803"
       style="fill:none;stroke:#000000;stroke-width:1;stroke-linecap:butt;stroke-linejoin:miter;stroke-miterlimit:4;stroke-dasharray:6, 6;stroke-dashoffset:0;stroke-opacity:1" />
    <path
       style="fill:none;stroke:#000000;stroke-width:1;stroke-linecap:butt;stroke-linejoin:miter;stroke-miterlimit:4;stroke-dasharray:6, 6;stroke-dashoffset:0;stroke-opacity:1"
       d="M 37.795274,149.56542 H 415.74803"
       id="path3752-2" />
    <path
       id="path3769"
       d="m 415.74803,157.12448 c 0,0 -241.88976,0 -302.3622,68.03149 83.1496,-52.91338 302.3622,-45.35433 302.3622,-45.35433"
       style="fill:none;stroke:#ff0000;stroke-width:1.2;stroke-linecap:butt;stroke-linejoin:miter;stroke-miterlimit:4;stroke-dasharray:none;stroke-opacity:1" />
    <path
       id="path3771"
       d="M 415.74803,51.297711 V 300.74652"
       style="fill:none;stroke:#000000;stroke-width:1px;stroke-linecap:butt;stroke-linejoin:miter;stroke-opacity:1" />
    <path
       id="path3775"
       d="m 123.88051,216.74101 c 9.02605,-7.86125 26.74721,-17.24375 46.27963,-24.50283 51.78051,-19.24385 140.4519,-32.04467 235.61613,-34.01411 l 8.92589,-0.18472 -0.002,10.4051 -0.002,10.4051 -34.89038,0.0704 c -52.22411,0.10544 -91.39908,2.36807 -134.21117,7.75163 -49.91426,6.27665 -93.46154,17.23444 -118.39889,29.79269 -5.57015,2.80508 -6.28968,2.86509 -3.31776,0.2767 z"
       style="opacity:0.523585;fill:#0099be;fill-opacity:0.471831;stroke:#000000;stroke-width:0.778987;stroke-miterlimit:4;stroke-dasharray:none;stroke-dashoffset:0;stroke-opacity:1" />
    <path
       id="path3777"
       d="M 415.74803,52.913386 V 36.1796"
       style="fill:none;stroke:#000000;stroke-width:1px;stroke-linecap:butt;stroke-linejoin:miter;stroke-opacity:1" />
    <path
       id="path3781"
       d="m 113.38583,225.15597 h 302.3622"
       style="fill:none;stroke:#000000;stroke-width:1px;stroke-linecap:butt;stroke-linejoin:miter;stroke-opacity:1" />
    <path
       id="path3783"
       d="m 117.38895,223.9271 c 2.74725,-1.88477 17.50908,-8.95777 24.34333,-11.66391 51.56821,-20.41929 139.22406,-31.7503 245.86764,-31.78256 l 27.10224,-0.008 v 22.07128 22.07129 l -149.14347,-0.01 c -102.43963,-0.007 -148.83855,-0.21913 -148.16974,-0.67797 z"
       style="opacity:0.523585;fill:#009914;fill-opacity:0.471831;stroke:#000000;stroke-width:0.778987;stroke-miterlimit:4;stroke-dasharray:none;stroke-dashoffset:0;stroke-opacity:1" />
    <path
       id="path3785"
       d="m 114.23433,186.65591 c 0,-31.64625 0.11987,-36.08891 0.97374,-36.08891 0.53555,0 0.97373,-0.43818 0.97373,-0.97373 0,-0.53555 -0.43818,-0.97373 -0.97373,-0.97373 -0.85804,0 -0.97374,-6.67188 -0.97374,-56.151947 v -56.15195 h 65.45707 c 36.00139,0 103.62716,0.194375 150.2795,0.431946 l 84.82242,0.431946 v 55.720004 55.720001 h -2.59662 c -1.87534,0 -2.59662,0.27048 -2.59662,0.97373 0,0.70325 0.72128,0.97373 2.59662,0.97373 h 2.59662 v 2.9212 2.9212 l -9.57504,0.007 c -34.08163,0.0238 -93.95061,4.68185 -133.88832,10.41711 -74.40464,10.68492 -127.74038,28.73317 -152.4108,51.5742 l -4.68483,4.33743 z m 14.12221,-37.22493 c 0.19252,-0.58419 -0.74763,-0.81144 -3.35704,-0.81144 -2.8432,0 -3.62446,0.2172 -3.62446,1.00766 0,0.80616 0.67128,0.96842 3.35705,0.81144 1.95707,-0.11439 3.46855,-0.53461 3.62445,-1.00766 z m 11.84401,0.16229 c 0,-0.73571 -0.79341,-0.97373 -3.24577,-0.97373 -2.45237,0 -3.24578,0.23802 -3.24578,0.97373 0,0.73571 0.79341,0.97373 3.24578,0.97373 2.45236,0 3.24577,-0.23802 3.24577,-0.97373 z m 11.6848,0 c 0,-0.73571 -0.79341,-0.97373 -3.24578,-0.97373 -2.45236,0 -3.24577,0.23802 -3.24577,0.97373 0,0.73571 0.79341,0.97373 3.24577,0.97373 2.45237,0 3.24578,-0.23802 3.24578,-0.97373 z m 12.33396,0 c 0,-0.73571 -0.79342,-0.97373 -3.24578,-0.97373 -2.45237,0 -3.24578,0.23802 -3.24578,0.97373 0,0.73571 0.79341,0.97373 3.24578,0.97373 2.45236,0 3.24578,-0.23802 3.24578,-0.97373 z m 11.68479,0 c 0,-0.73571 -0.79341,-0.97373 -3.24577,-0.97373 -2.45237,0 -3.24578,0.23802 -3.24578,0.97373 0,0.73571 0.79341,0.97373 3.24578,0.97373 2.45236,0 3.24577,-0.23802 3.24577,-0.97373 z m 12.33396,0 c 0,-0.73571 -0.79341,-0.97373 -3.24578,-0.97373 -2.45237,0 -3.24578,0.23802 -3.24578,0.97373 0,0.73571 0.79341,0.97373 3.24578,0.97373 2.45237,0 3.24578,-0.23802 3.24578,-0.97373 z m 11.6848,0 c 0,-0.73571 -0.79341,-0.97373 -3.24578,-0.97373 -2.45237,0 -3.24578,0.23802 -3.24578,0.97373 0,0.73571 0.79341,0.97373 3.24578,0.97373 2.45237,0 3.24578,-0.23802 3.24578,-0.97373 z m 12.33395,0 c 0,-0.73571 -0.79341,-0.97373 -3.24578,-0.97373 -2.45236,0 -3.24577,0.23802 -3.24577,0.97373 0,0.73571 0.79341,0.97373 3.24577,0.97373 2.45237,0 3.24578,-0.23802 3.24578,-0.97373 z m 11.6848,0 c 0,-0.73571 -0.79341,-0.97373 -3.24578,-0.97373 -2.45236,0 -3.24577,0.23802 -3.24577,0.97373 0,0.73571 0.79341,0.97373 3.24577,0.97373 2.45237,0 3.24578,-0.23802 3.24578,-0.97373 z m 12.33395,0 c 0,-0.73571 -0.79341,-0.97373 -3.24577,-0.97373 -2.45237,0 -3.24578,0.23802 -3.24578,0.97373 0,0.73571 0.79341,0.97373 3.24578,0.97373 2.45236,0 3.24577,-0.23802 3.24577,-0.97373 z m 11.6848,0 c 0,-0.73571 -0.79341,-0.97373 -3.24577,-0.97373 -2.45237,0 -3.24578,0.23802 -3.24578,0.97373 0,0.73571 0.79341,0.97373 3.24578,0.97373 2.45236,0 3.24577,-0.23802 3.24577,-0.97373 z m 12.33396,0 c 0,-0.73571 -0.79341,-0.97373 -3.24578,-0.97373 -2.45237,0 -3.24578,0.23802 -3.24578,0.97373 0,0.73571 0.79341,0.97373 3.24578,0.97373 2.45237,0 3.24578,-0.23802 3.24578,-0.97373 z m 11.6848,0 c 0,-0.73571 -0.79341,-0.97373 -3.24578,-0.97373 -2.45237,0 -3.24578,0.23802 -3.24578,0.97373 0,0.73571 0.79341,0.97373 3.24578,0.97373 2.45237,0 3.24578,-0.23802 3.24578,-0.97373 z m 12.33395,0 c 0,-0.73571 -0.79341,-0.97373 -3.24578,-0.97373 -2.45236,0 -3.24577,0.23802 -3.24577,0.97373 0,0.73571 0.79341,0.97373 3.24577,0.97373 2.45237,0 3.24578,-0.23802 3.24578,-0.97373 z m 11.6848,0 c 0,-0.73571 -0.79341,-0.97373 -3.24578,-0.97373 -2.45237,0 -3.24578,0.23802 -3.24578,0.97373 0,0.73571 0.79341,0.97373 3.24578,0.97373 2.45237,0 3.24578,-0.23802 3.24578,-0.97373 z m 12.33395,0 c 0,-0.73571 -0.79341,-0.97373 -3.24577,-0.97373 -2.45237,0 -3.24578,0.23802 -3.24578,0.97373 0,0.73571 0.79341,0.97373 3.24578,0.97373 2.45236,0 3.24577,-0.23802 3.24577,-0.97373 z m 11.6848,0 c 0,-0.73571 -0.79341,-0.97373 -3.24578,-0.97373 -2.45236,0 -3.24577,0.23802 -3.24577,0.97373 0,0.73571 0.79341,0.97373 3.24577,0.97373 2.45237,0 3.24578,-0.23802 3.24578,-0.97373 z m 12.33396,0 c 0,-0.73571 -0.79342,-0.97373 -3.24578,-0.97373 -2.45237,0 -3.24578,0.23802 -3.24578,0.97373 0,0.73571 0.79341,0.97373 3.24578,0.97373 2.45236,0 3.24578,-0.23802 3.24578,-0.97373 z m 11.68479,0 c 0,-0.73571 -0.79341,-0.97373 -3.24577,-0.97373 -2.45237,0 -3.24578,0.23802 -3.24578,0.97373 0,0.73571 0.79341,0.97373 3.24578,0.97373 2.45236,0 3.24577,-0.23802 3.24577,-0.97373 z m 12.33396,0 c 0,-0.73571 -0.79341,-0.97373 -3.24578,-0.97373 -2.45237,0 -3.24578,0.23802 -3.24578,0.97373 0,0.73571 0.79341,0.97373 3.24578,0.97373 2.45237,0 3.24578,-0.23802 3.24578,-0.97373 z m 11.6848,0 c 0,-0.73571 -0.79341,-0.97373 -3.24578,-0.97373 -2.45237,0 -3.24578,0.23802 -3.24578,0.97373 0,0.73571 0.79341,0.97373 3.24578,0.97373 2.45237,0 3.24578,-0.23802 3.24578,-0.97373 z m 12.33395,0 c 0,-0.73415 -0.78915,-0.97373 -3.20746,-0.97373 -3.03148,0 -4.40907,0.6061 -3.48283,1.53234 0.22832,0.22832 1.82703,0.41512 3.55271,0.41512 2.35619,0 3.13758,-0.24249 3.13758,-0.97373 z m 11.6848,0 c 0,-0.73571 -0.79341,-0.97373 -3.24578,-0.97373 -2.45236,0 -3.24577,0.23802 -3.24577,0.97373 0,0.73571 0.79341,0.97373 3.24577,0.97373 2.45237,0 3.24578,-0.23802 3.24578,-0.97373 z m 12.33395,0 c 0,-0.74751 -0.82947,-0.97373 -3.57035,-0.97373 -3.30759,0 -4.21447,0.4378 -3.13758,1.51469 0.23802,0.23803 1.84468,0.43277 3.57035,0.43277 2.3562,0 3.13758,-0.24249 3.13758,-0.97373 z"
       style="opacity:0.523585;fill:#e6e00d;fill-opacity:0.471831;stroke:#000000;stroke-width:0.778987;stroke-miterlimit:4;stroke-dasharray:none;stroke-dashoffset:0;stroke-opacity:1" />
    <path
       id="path3787"
       d="m 114.14317,262.5906 v -36.67728 h 150.2795 150.27949 v 36.35271 c 0,19.99399 -0.22114,36.3527 -0.49143,36.3527 -0.27029,0 -3.10527,-0.71914 -6.29997,-1.59809 -3.19469,-0.87895 -5.94459,-1.46203 -6.11087,-1.29574 -0.16629,0.16628 0.38266,1.03148 1.21988,1.92266 l 1.52222,1.62033 H 259.34258 114.14317 Z"
       style="opacity:0.523585;fill:#8a51be;fill-opacity:0.471831;stroke:#000000;stroke-width:0.778987;stroke-miterlimit:4;stroke-dasharray:none;stroke-dashoffset:0;stroke-opacity:1" />
    <path
       sodipodi:nodetypes="ccssscccssscccssssscccssscccssscccccccssssssssssssssssssssssssssssssssssssssssssssssssss"
       id="path4143"
       d="m 38.819503,262.51847 v -36.67728 h 2.596622 c 1.428142,0 2.596622,-0.29212 2.596622,-0.64916 0,-0.35703 -1.16848,-0.64915 -2.596622,-0.64915 h -2.596622 v -37.00186 -37.00187 h 2.596622 c 1.875338,0 2.596622,-0.27048 2.596622,-0.97373 0,-0.70325 -0.721284,-0.97373 -2.596622,-0.97373 H 38.819503 V 97.186957 45.782224 l 1.940695,1.859303 c 1.067383,1.022617 2.05156,1.73454 2.187061,1.582051 0.135501,-0.152489 -0.487223,-2.840458 -1.383831,-5.973265 -0.896608,-3.132807 -1.508005,-5.818204 -1.35866,-5.967548 0.149344,-0.149345 16.549593,-0.480294 36.444998,-0.735443 l 36.173454,-0.463906 v 56.254141 56.254133 h -1.62289 c -1.0098,0 -1.62288,0.36785 -1.62288,0.97373 0,0.60588 0.61308,0.97373 1.62288,0.97373 h 1.62289 v 37.00187 37.00186 h -1.62289 c -0.89258,0 -1.62288,0.29212 -1.62288,0.64915 0,0.35704 0.7303,0.64916 1.62288,0.64916 h 1.62289 v 24.99248 11.6848 36.67729 H 75.821366 38.819503 Z m 17.527198,-37.32644 c 0,-0.35703 -1.60666,-0.64915 -3.570355,-0.64915 -1.963695,0 -3.570355,0.29212 -3.570355,0.64915 0,0.35704 1.60666,0.64916 3.570355,0.64916 1.963695,0 3.570355,-0.29212 3.570355,-0.64916 z m 11.684799,0 c 0,-0.35703 -1.4606,-0.64915 -3.245778,-0.64915 -1.785177,0 -3.245777,0.29212 -3.245777,0.64915 0,0.35704 1.4606,0.64916 3.245777,0.64916 1.785178,0 3.245778,-0.29212 3.245778,-0.64916 z m 12.333954,0 c 0,-0.35703 -1.60666,-0.64915 -3.570355,-0.64915 -1.963695,0 -3.570355,0.29212 -3.570355,0.64915 0,0.35704 1.60666,0.64916 3.570355,0.64916 1.963695,0 3.570355,-0.29212 3.570355,-0.64916 z m 11.684799,0 c 0,-0.35703 -1.4606,-0.64915 -3.245778,-0.64915 -1.785177,0 -3.245777,0.29212 -3.245777,0.64915 0,0.35704 1.4606,0.64916 3.245777,0.64916 1.785178,0 3.245778,-0.29212 3.245778,-0.64916 z m 12.333947,0 c 0,-0.35703 -1.60666,-0.64915 -3.57035,-0.64915 -1.963694,0 -3.570353,0.29212 -3.570353,0.64915 0,0.35704 1.606659,0.64916 3.570353,0.64916 1.96369,0 3.57035,-0.29212 3.57035,-0.64916 z M 56.346701,149.56542 c 0,-0.74751 -0.829476,-0.97373 -3.570355,-0.97373 -2.740879,0 -3.570355,0.22622 -3.570355,0.97373 0,0.74752 0.829476,0.97373 3.570355,0.97373 2.740879,0 3.570355,-0.22621 3.570355,-0.97373 z m 11.684799,0 c 0,-0.73571 -0.793412,-0.97373 -3.245778,-0.97373 -2.452365,0 -3.245777,0.23802 -3.245777,0.97373 0,0.73571 0.793412,0.97373 3.245777,0.97373 2.452366,0 3.245778,-0.23802 3.245778,-0.97373 z m 12.333954,0 c 0,-0.74751 -0.829477,-0.97373 -3.570355,-0.97373 -2.740879,0 -3.570355,0.22622 -3.570355,0.97373 0,0.74752 0.829476,0.97373 3.570355,0.97373 2.740878,0 3.570355,-0.22621 3.570355,-0.97373 z m 11.684799,0 c 0,-0.73571 -0.793412,-0.97373 -3.245778,-0.97373 -2.452365,0 -3.245777,0.23802 -3.245777,0.97373 0,0.73571 0.793412,0.97373 3.245777,0.97373 2.452366,0 3.245778,-0.23802 3.245778,-0.97373 z m 12.333947,0 c 0,-0.74751 -0.82948,-0.97373 -3.57035,-0.97373 -2.740877,0 -3.570353,0.22622 -3.570353,0.97373 0,0.74752 0.829476,0.97373 3.570353,0.97373 2.74087,0 3.57035,-0.22621 3.57035,-0.97373 z"
       style="opacity:0.858491;fill:#000000;fill-opacity:0.471831;stroke:#000000;stroke-width:0.505692;stroke-miterlimit:4;stroke-dasharray:none;stroke-dashoffset:0;stroke-opacity:1" />
    <text
       id="text4147"
       y="321.58762"
       x="405.00543"
       style="font-size:40px;line-height:1.25;font-family:sans-serif;word-spacing:0px"
       xml:space="preserve"><tspan
         style="font-size:18.6667px"
         y="321.58762"
         x="405.00543"
         id="tspan4145"
         sodipodi:role="line">$a$</tspan></text>
    <text
       xml:space="preserve"
       style="font-size:40px;line-height:1.25;font-family:sans-serif;word-spacing:0px"
       x="21.104631"
       y="48.719547"
       id="text4147-7"><tspan
         sodipodi:role="line"
         id="tspan4145-0"
         x="21.104631"
         y="48.719547"
         style="font-size:18.6667px">$b$</tspan></text>
    <text
       xml:space="preserve"
       style="font-size:40px;line-height:1.25;font-family:sans-serif;word-spacing:0px"
       x="19.362885"
       y="155.89049"
       id="text4147-9"><tspan
         sodipodi:role="line"
         id="tspan4145-3"
         x="19.362885"
         y="155.89049"
         style="font-size:18.6667px">$1$</tspan></text>
    <text
       xml:space="preserve"
       style="font-size:40px;line-height:1.25;font-family:sans-serif;word-spacing:0px"
       x="17.820511"
       y="230.99837"
       id="text4147-6"><tspan
         sodipodi:role="line"
         id="tspan4145-06"
         x="17.820511"
         y="230.99837"
         style="font-size:18.6667px">$\frac12$</tspan></text>
    <text
       xml:space="preserve"
       style="font-size:40px;line-height:1.25;font-family:sans-serif;word-spacing:0px"
       x="109.95065"
       y="318.55222"
       id="text4147-2"><tspan
         sodipodi:role="line"
         id="tspan4145-6"
         x="109.95065"
         y="318.55222"
         style="font-size:18.6667px">$1$</tspan></text>
    <path
       id="path4191"
       d="m 113.38583,225.15597 h 302.3622"
       style="fill:none;stroke:#ff0000;stroke-width:1.2;stroke-linecap:butt;stroke-linejoin:miter;stroke-miterlimit:4;stroke-dasharray:none;stroke-opacity:1" />
    <text
       transform="scale(1,-1)"
       id="text4219"
       y="-93.357117"
       x="364.75226"
       style="font-size:40px;line-height:1.25;font-family:sans-serif;word-spacing:0px"
       xml:space="preserve"><tspan
         style="font-size:18.6667px"
         y="-93.357117"
         x="364.75226"
         id="tspan4217"
         sodipodi:role="line">I</tspan></text>
    <text
       xml:space="preserve"
       style="font-size:40px;line-height:1.25;font-family:sans-serif;word-spacing:0px"
       x="373.01468"
       y="-175.66405"
       id="text4219-1"
       transform="scale(1,-1)"><tspan
         sodipodi:role="line"
         id="tspan4217-8"
         x="373.01468"
         y="-175.66405"
         style="font-size:18.6667px">II</tspan></text>
    <text
       xml:space="preserve"
       style="font-size:40px;line-height:1.25;font-family:sans-serif;word-spacing:0px"
       x="336.42606"
       y="-209.34164"
       id="text4219-7"
       transform="scale(1,-1)"><tspan
         sodipodi:role="line"
         id="tspan4217-9"
         x="336.42606"
         y="-209.34164"
         style="font-size:18.6667px">III</tspan></text>
    <text
       id="text4267"
       y="269.83658"
       x="294.80316"
       style="font-size:40px;line-height:1.25;font-family:sans-serif;word-spacing:0px"
       xml:space="preserve"><tspan
         style="font-size:18.6667px"
         y="269.83658"
         x="294.80316"
         id="tspan4265"
         sodipodi:role="line">IV</tspan></text>
  </g>
</svg>
